$MeshFormat
2.2 0 8
$EndMeshFormat
$PhysicalNames
6
1 1 "inlet"
1 2 "outlet"
1 3 "axis"
1 4 "sphere"
1 5 "farfield"
2 6 "fluid"
$EndPhysicalNames
$Nodes
533
1 -4 0 0
2 -3.75 0 0
3 -3.5 0 0
4 -3.25 0 0
5 -3 0 0
6 -2.75 0 0
7 -2.5 0 0
8 -2.25 0 0
9 -2 0 0
10 -1.75 0 0
11 -1.5 0 0
12 -1.25 0 0
13 -1 0 0
14 -0.75 0.6614378277661477 0
15 -0.5 0.8660254037844386 0
16 -0.25 0.9682458365518543 0
17 0 1 0
18 0.25 0.9682458365518543 0
19 0.5 0.8660254037844386 0
20 0.75 0.6614378277661477 0
21 1 0 0
22 1.25 0 0
23 1.5 0 0
24 1.75 0 0
25 2 0 0
26 2.25 0 0
27 2.5 0 0
28 2.75 0 0
29 3 0 0
30 3.25 0 0
31 3.5 0 0
32 3.75 0 0
33 4 0 0
34 4.25 0 0
35 4.5 0 0
36 4.75 0 0
37 5 0 0
38 5.25 0 0
39 5.5 0 0
40 5.75 0 0
41 6 0 0
42 -4 0.120281306081172 0
43 -3.75 0.120281306081172 0
44 -3.5 0.120281306081172 0
45 -3.25 0.120281306081172 0
46 -3 0.120281306081172 0
47 -2.75 0.120281306081172 0
48 -2.5 0.120281306081172 0
49 -2.25 0.120281306081172 0
50 -2 0.120281306081172 0
51 -1.75 0.120281306081172 0
52 -1.5 0.120281306081172 0
53 -1.25 0.120281306081172 0
54 -1 0.120281306081172 0
55 -0.75 0.7658074126842787 0
56 -0.5 0.9654733765322773 0
57 -0.25 1.065234767867403 0
58 0 1.096225044864938 0
59 0.25 1.065234767867403 0
60 0.5 0.9654733765322773 0
61 0.75 0.7658074126842787 0
62 1 0.120281306081172 0
63 1.25 0.120281306081172 0
64 1.5 0.120281306081172 0
65 1.75 0.120281306081172 0
66 2 0.120281306081172 0
67 2.25 0.120281306081172 0
68 2.5 0.120281306081172 0
69 2.75 0.120281306081172 0
70 3 0.120281306081172 0
71 3.25 0.120281306081172 0
72 3.5 0.120281306081172 0
73 3.75 0.120281306081172 0
74 4 0.120281306081172 0
75 4.25 0.120281306081172 0
76 4.5 0.120281306081172 0
77 4.75 0.120281306081172 0
78 5 0.120281306081172 0
79 5.25 0.120281306081172 0
80 5.5 0.120281306081172 0
81 5.75 0.120281306081172 0
82 6 0.120281306081172 0
83 -4 0.3402069087198858 0
84 -3.75 0.3402069087198858 0
85 -3.5 0.3402069087198858 0
86 -3.25 0.3402069087198858 0
87 -3 0.3402069087198858 0
88 -2.75 0.3402069087198858 0
89 -2.5 0.3402069087198858 0
90 -2.25 0.3402069087198858 0
91 -2 0.3402069087198858 0
92 -1.75 0.3402069087198858 0
93 -1.5 0.3402069087198858 0
94 -1.25 0.3402069087198858 0
95 -1 0.3402069087198858 0
96 -0.75 0.9566395927470901 0
97 -0.5 1.147306747405445 0
98 -0.25 1.242571960684899 0
99 0 1.272165526975909 0
100 0.25 1.242571960684899 0
101 0.5 1.147306747405445 0
102 0.75 0.9566395927470901 0
103 1 0.3402069087198858 0
104 1.25 0.3402069087198858 0
105 1.5 0.3402069087198858 0
106 1.75 0.3402069087198858 0
107 2 0.3402069087198858 0
108 2.25 0.3402069087198858 0
109 2.5 0.3402069087198858 0
110 2.75 0.3402069087198858 0
111 3 0.3402069087198858 0
112 3.25 0.3402069087198858 0
113 3.5 0.3402069087198858 0
114 3.75 0.3402069087198858 0
115 4 0.3402069087198858 0
116 4.25 0.3402069087198858 0
117 4.5 0.3402069087198858 0
118 4.75 0.3402069087198858 0
119 5 0.3402069087198858 0
120 5.25 0.3402069087198858 0
121 5.5 0.3402069087198858 0
122 5.75 0.3402069087198858 0
123 6 0.3402069087198858 0
124 -4 0.625 0
125 -3.75 0.625 0
126 -3.5 0.625 0
127 -3.25 0.625 0
128 -3 0.625 0
129 -2.75 0.625 0
130 -2.5 0.625 0
131 -2.25 0.625 0
132 -2 0.625 0
133 -1.75 0.625 0
134 -1.5 0.625 0
135 -1.25 0.625 0
136 -1 0.625 0
137 -0.75 1.203758099295379 0
138 -0.5 1.382772228311384 0
139 -0.25 1.472215106982873 0
140 0 1.5 0
141 0.25 1.472215106982873 0
142 0.5 1.382772228311384 0
143 0.75 1.203758099295379 0
144 1 0.625 0
145 1.25 0.625 0
146 1.5 0.625 0
147 1.75 0.625 0
148 2 0.625 0
149 2.25 0.625 0
150 2.5 0.625 0
151 2.75 0.625 0
152 3 0.625 0
153 3.25 0.625 0
154 3.5 0.625 0
155 3.75 0.625 0
156 4 0.625 0
157 4.25 0.625 0
158 4.5 0.625 0
159 4.75 0.625 0
160 5 0.625 0
161 5.25 0.625 0
162 5.5 0.625 0
163 5.75 0.625 0
164 6 0.625 0
165 -4 0.9622504486493761 0
166 -3.75 0.9622504486493761 0
167 -3.5 0.9622504486493761 0
168 -3.25 0.9622504486493761 0
169 -3 0.9622504486493761 0
170 -2.75 0.9622504486493761 0
171 -2.5 0.9622504486493761 0
172 -2.25 0.9622504486493761 0
173 -2 0.9622504486493761 0
174 -1.75 0.9622504486493761 0
175 -1.5 0.9622504486493761 0
176 -1.25 0.9622504486493761 0
177 -1 0.9622504486493761 0
178 -0.75 1.496394507111195 0
179 -0.5 1.661609185767148 0
180 -0.25 1.744157287076248 0
181 0 1.769800358919501 0
182 0.25 1.744157287076248 0
183 0.5 1.661609185767148 0
184 0.75 1.496394507111195 0
185 1 0.9622504486493761 0
186 1.25 0.9622504486493761 0
187 1.5 0.9622504486493761 0
188 1.75 0.9622504486493761 0
189 2 0.9622504486493761 0
190 2.25 0.9622504486493761 0
191 2.5 0.9622504486493761 0
192 2.75 0.9622504486493761 0
193 3 0.9622504486493761 0
194 3.25 0.9622504486493761 0
195 3.5 0.9622504486493761 0
196 3.75 0.9622504486493761 0
197 4 0.9622504486493761 0
198 4.25 0.9622504486493761 0
199 4.5 0.9622504486493761 0
200 4.75 0.9622504486493761 0
201 5 0.9622504486493761 0
202 5.25 0.9622504486493761 0
203 5.5 0.9622504486493761 0
204 5.75 0.9622504486493761 0
205 6 0.9622504486493761 0
206 -4 1.344785884099797 0
207 -3.75 1.344785884099797 0
208 -3.5 1.344785884099797 0
209 -3.25 1.344785884099797 0
210 -3 1.344785884099797 0
211 -2.75 1.344785884099797 0
212 -2.5 1.344785884099797 0
213 -2.25 1.344785884099797 0
214 -2 1.344785884099797 0
215 -1.75 1.344785884099797 0
216 -1.5 1.344785884099797 0
217 -1.25 1.344785884099797 0
218 -1 1.344785884099797 0
219 -0.75 1.828325261068036 0
220 -0.5 1.977887540228008 0
221 -0.25 2.052615053984985 0
222 0 2.075828707279838 0
223 0.25 2.052615053984985 0
224 0.5 1.977887540228008 0
225 0.75 1.828325261068036 0
226 1 1.344785884099797 0
227 1.25 1.344785884099797 0
228 1.5 1.344785884099797 0
229 1.75 1.344785884099797 0
230 2 1.344785884099797 0
231 2.25 1.344785884099797 0
232 2.5 1.344785884099797 0
233 2.75 1.344785884099797 0
234 3 1.344785884099797 0
235 3.25 1.344785884099797 0
236 3.5 1.344785884099797 0
237 3.75 1.344785884099797 0
238 4 1.344785884099797 0
239 4.25 1.344785884099797 0
240 4.5 1.344785884099797 0
241 4.75 1.344785884099797 0
242 5 1.344785884099797 0
243 5.25 1.344785884099797 0
244 5.5 1.344785884099797 0
245 5.75 1.344785884099797 0
246 6 1.344785884099797 0
247 -4 1.767766952966369 0
248 -3.75 1.767766952966369 0
249 -3.5 1.767766952966369 0
250 -3.25 1.767766952966369 0
251 -3 1.767766952966369 0
252 -2.75 1.767766952966369 0
253 -2.5 1.767766952966369 0
254 -2.25 1.767766952966369 0
255 -2 1.767766952966369 0
256 -1.75 1.767766952966369 0
257 -1.5 1.767766952966369 0
258 -1.25 1.767766952966369 0
259 -1 1.767766952966369 0
260 -0.75 2.195351194059145 0
261 -0.5 2.32760613890291 0
262 -0.25 2.393686191077494 0
263 0 2.414213562373095 0
264 0.25 2.393686191077494 0
265 0.5 2.32760613890291 0
266 0.75 2.195351194059145 0
267 1 1.767766952966369 0
268 1.25 1.767766952966369 0
269 1.5 1.767766952966369 0
270 1.75 1.767766952966369 0
271 2 1.767766952966369 0
272 2.25 1.767766952966369 0
273 2.5 1.767766952966369 0
274 2.75 1.767766952966369 0
275 3 1.767766952966369 0
276 3.25 1.767766952966369 0
277 3.5 1.767766952966369 0
278 3.75 1.767766952966369 0
279 4 1.767766952966369 0
280 4.25 1.767766952966369 0
281 4.5 1.767766952966369 0
282 4.75 1.767766952966369 0
283 5 1.767766952966369 0
284 5.25 1.767766952966369 0
285 5.5 1.767766952966369 0
286 5.75 1.767766952966369 0
287 6 1.767766952966369 0
288 -4 2.227640962825756 0
289 -3.75 2.227640962825756 0
290 -3.5 2.227640962825756 0
291 -3.25 2.227640962825756 0
292 -3 2.227640962825756 0
293 -2.75 2.227640962825756 0
294 -2.5 2.227640962825756 0
295 -2.25 2.227640962825756 0
296 -2 2.227640962825756 0
297 -1.75 2.227640962825756 0
298 -1.5 2.227640962825756 0
299 -1.25 2.227640962825756 0
300 -1 2.227640962825756 0
301 -0.75 2.594389590693032 0
302 -0.5 2.707827633746608 0
303 -0.25 2.76450598185993 0
304 0 2.782112770260604 0
305 0.25 2.76450598185993 0
306 0.5 2.707827633746608 0
307 0.75 2.594389590693032 0
308 1 2.227640962825756 0
309 1.25 2.227640962825756 0
310 1.5 2.227640962825756 0
311 1.75 2.227640962825756 0
312 2 2.227640962825756 0
313 2.25 2.227640962825756 0
314 2.5 2.227640962825756 0
315 2.75 2.227640962825756 0
316 3 2.227640962825756 0
317 3.25 2.227640962825756 0
318 3.5 2.227640962825756 0
319 3.75 2.227640962825756 0
320 4 2.227640962825756 0
321 4.25 2.227640962825756 0
322 4.5 2.227640962825756 0
323 4.75 2.227640962825756 0
324 5 2.227640962825756 0
325 5.25 2.227640962825756 0
326 5.5 2.227640962825756 0
327 5.75 2.227640962825756 0
328 6 2.227640962825756 0
329 -4 2.721655269759087 0
330 -3.75 2.721655269759087 0
331 -3.5 2.721655269759087 0
332 -3.25 2.721655269759087 0
333 -3 2.721655269759087 0
334 -2.75 2.721655269759087 0
335 -2.5 2.721655269759087 0
336 -2.25 2.721655269759087 0
337 -2 2.721655269759087 0
338 -1.75 2.721655269759087 0
339 -1.5 2.721655269759087 0
340 -1.25 2.721655269759087 0
341 -1 2.721655269759087 0
342 -0.75 3.023051947613687 0
343 -0.5 3.116276152752494 0
344 -0.25 3.162854829616212 0
345 0 3.177324215807269 0
346 0.25 3.162854829616212 0
347 0.5 3.116276152752494 0
348 0.75 3.023051947613687 0
349 1 2.721655269759087 0
350 1.25 2.721655269759087 0
351 1.5 2.721655269759087 0
352 1.75 2.721655269759087 0
353 2 2.721655269759087 0
354 2.25 2.721655269759087 0
355 2.5 2.721655269759087 0
356 2.75 2.721655269759087 0
357 3 2.721655269759087 0
358 3.25 2.721655269759087 0
359 3.5 2.721655269759087 0
360 3.75 2.721655269759087 0
361 4 2.721655269759087 0
362 4.25 2.721655269759087 0
363 4.5 2.721655269759087 0
364 4.75 2.721655269759087 0
365 5 2.721655269759087 0
366 5.25 2.721655269759087 0
367 5.5 2.721655269759087 0
368 5.75 2.721655269759087 0
369 6 2.721655269759087 0
370 -4 3.247595264191645 0
371 -3.75 3.247595264191645 0
372 -3.5 3.247595264191645 0
373 -3.25 3.247595264191645 0
374 -3 3.247595264191645 0
375 -2.75 3.247595264191645 0
376 -2.5 3.247595264191645 0
377 -2.25 3.247595264191645 0
378 -2 3.247595264191645 0
379 -1.75 3.247595264191645 0
380 -1.5 3.247595264191645 0
381 -1.25 3.247595264191645 0
382 -1 3.247595264191645 0
383 -0.75 3.479416620555683 0
384 -0.5 3.551120667976083 0
385 -0.25 3.586946982071684 0
386 0 3.598076211353316 0
387 0.25 3.586946982071684 0
388 0.5 3.551120667976083 0
389 0.75 3.479416620555683 0
390 1 3.247595264191645 0
391 1.25 3.247595264191645 0
392 1.5 3.247595264191645 0
393 1.75 3.247595264191645 0
394 2 3.247595264191645 0
395 2.25 3.247595264191645 0
396 2.5 3.247595264191645 0
397 2.75 3.247595264191645 0
398 3 3.247595264191645 0
399 3.25 3.247595264191645 0
400 3.5 3.247595264191645 0
401 3.75 3.247595264191645 0
402 4 3.247595264191645 0
403 4.25 3.247595264191645 0
404 4.5 3.247595264191645 0
405 4.75 3.247595264191645 0
406 5 3.247595264191645 0
407 5.25 3.247595264191645 0
408 5.5 3.247595264191645 0
409 5.75 3.247595264191645 0
410 6 3.247595264191645 0
411 -4 3.803628871563654 0
412 -3.75 3.803628871563654 0
413 -3.5 3.803628871563654 0
414 -3.25 3.803628871563654 0
415 -3 3.803628871563654 0
416 -2.75 3.803628871563654 0
417 -2.5 3.803628871563654 0
418 -2.25 3.803628871563654 0
419 -2 3.803628871563654 0
420 -1.75 3.803628871563654 0
421 -1.5 3.803628871563654 0
422 -1.25 3.803628871563654 0
423 -1 3.803628871563654 0
424 -0.75 3.961893895642668 0
425 -0.5 4.01084642947968 0
426 -0.25 4.035305144379521 0
427 0 4.042903097250923 0
428 0.25 4.035305144379521 0
429 0.5 4.01084642947968 0
430 0.75 3.961893895642668 0
431 1 3.803628871563654 0
432 1.25 3.803628871563654 0
433 1.5 3.803628871563654 0
434 1.75 3.803628871563654 0
435 2 3.803628871563654 0
436 2.25 3.803628871563654 0
437 2.5 3.803628871563654 0
438 2.75 3.803628871563654 0
439 3 3.803628871563654 0
440 3.25 3.803628871563654 0
441 3.5 3.803628871563654 0
442 3.75 3.803628871563654 0
443 4 3.803628871563654 0
444 4.25 3.803628871563654 0
445 4.5 3.803628871563654 0
446 4.75 3.803628871563654 0
447 5 3.803628871563654 0
448 5.25 3.803628871563654 0
449 5.5 3.803628871563654 0
450 5.75 3.803628871563654 0
451 6 3.803628871563654 0
452 -4 4.38820757721655 0
453 -3.75 4.38820757721655 0
454 -3.5 4.38820757721655 0
455 -3.25 4.38820757721655 0
456 -3 4.38820757721655 0
457 -2.75 4.38820757721655 0
458 -2.5 4.38820757721655 0
459 -2.25 4.38820757721655 0
460 -2 4.38820757721655 0
461 -1.75 4.38820757721655 0
462 -1.5 4.38820757721655 0
463 -1.25 4.38820757721655 0
464 -1 4.38820757721655 0
465 -0.75 4.469140107450484 0
466 -0.5 4.494173133211209 0
467 -0.25 4.506680670455359 0
468 0 4.51056606177324 0
469 0.25 4.506680670455359 0
470 0.5 4.494173133211209 0
471 0.75 4.469140107450484 0
472 1 4.38820757721655 0
473 1.25 4.38820757721655 0
474 1.5 4.38820757721655 0
475 1.75 4.38820757721655 0
476 2 4.38820757721655 0
477 2.25 4.38820757721655 0
478 2.5 4.38820757721655 0
479 2.75 4.38820757721655 0
480 3 4.38820757721655 0
481 3.25 4.38820757721655 0
482 3.5 4.38820757721655 0
483 3.75 4.38820757721655 0
484 4 4.38820757721655 0
485 4.25 4.38820757721655 0
486 4.5 4.38820757721655 0
487 4.75 4.38820757721655 0
488 5 4.38820757721655 0
489 5.25 4.38820757721655 0
490 5.5 4.38820757721655 0
491 5.75 4.38820757721655 0
492 6 4.38820757721655 0
493 -4 5 0
494 -3.75 5 0
495 -3.5 5 0
496 -3.25 5 0
497 -3 5 0
498 -2.75 5 0
499 -2.5 5 0
500 -2.25 5 0
501 -2 5 0
502 -1.75 5 0
503 -1.5 5 0
504 -1.25 5 0
505 -1 5 0
506 -0.75 5 0
507 -0.5 5 0
508 -0.25 5 0
509 0 5 0
510 0.25 5 0
511 0.5 5 0
512 0.75 5 0
513 1 5 0
514 1.25 5 0
515 1.5 5 0
516 1.75 5 0
517 2 5 0
518 2.25 5 0
519 2.5 5 0
520 2.75 5 0
521 3 5 0
522 3.25 5 0
523 3.5 5 0
524 3.75 5 0
525 4 5 0
526 4.25 5 0
527 4.5 5 0
528 4.75 5 0
529 5 5 0
530 5.25 5 0
531 5.5 5 0
532 5.75 5 0
533 6 5 0
$EndNodes
$Elements
584
1 1 2 1 1 1 42
2 1 2 1 1 42 83
3 1 2 1 1 83 124
4 1 2 1 1 124 165
5 1 2 1 1 165 206
6 1 2 1 1 206 247
7 1 2 1 1 247 288
8 1 2 1 1 288 329
9 1 2 1 1 329 370
10 1 2 1 1 370 411
11 1 2 1 1 411 452
12 1 2 1 1 452 493
13 1 2 2 2 41 82
14 1 2 2 2 82 123
15 1 2 2 2 123 164
16 1 2 2 2 164 205
17 1 2 2 2 205 246
18 1 2 2 2 246 287
19 1 2 2 2 287 328
20 1 2 2 2 328 369
21 1 2 2 2 369 410
22 1 2 2 2 410 451
23 1 2 2 2 451 492
24 1 2 2 2 492 533
25 1 2 3 3 1 2
26 1 2 3 3 2 3
27 1 2 3 3 3 4
28 1 2 3 3 4 5
29 1 2 3 3 5 6
30 1 2 3 3 6 7
31 1 2 3 3 7 8
32 1 2 3 3 8 9
33 1 2 3 3 9 10
34 1 2 3 3 10 11
35 1 2 3 3 11 12
36 1 2 3 3 12 13
37 1 2 4 4 13 14
38 1 2 4 4 14 15
39 1 2 4 4 15 16
40 1 2 4 4 16 17
41 1 2 4 4 17 18
42 1 2 4 4 18 19
43 1 2 4 4 19 20
44 1 2 4 4 20 21
45 1 2 3 3 21 22
46 1 2 3 3 22 23
47 1 2 3 3 23 24
48 1 2 3 3 24 25
49 1 2 3 3 25 26
50 1 2 3 3 26 27
51 1 2 3 3 27 28
52 1 2 3 3 28 29
53 1 2 3 3 29 30
54 1 2 3 3 30 31
55 1 2 3 3 31 32
56 1 2 3 3 32 33
57 1 2 3 3 33 34
58 1 2 3 3 34 35
59 1 2 3 3 35 36
60 1 2 3 3 36 37
61 1 2 3 3 37 38
62 1 2 3 3 38 39
63 1 2 3 3 39 40
64 1 2 3 3 40 41
65 1 2 5 5 493 494
66 1 2 5 5 494 495
67 1 2 5 5 495 496
68 1 2 5 5 496 497
69 1 2 5 5 497 498
70 1 2 5 5 498 499
71 1 2 5 5 499 500
72 1 2 5 5 500 501
73 1 2 5 5 501 502
74 1 2 5 5 502 503
75 1 2 5 5 503 504
76 1 2 5 5 504 505
77 1 2 5 5 505 506
78 1 2 5 5 506 507
79 1 2 5 5 507 508
80 1 2 5 5 508 509
81 1 2 5 5 509 510
82 1 2 5 5 510 511
83 1 2 5 5 511 512
84 1 2 5 5 512 513
85 1 2 5 5 513 514
86 1 2 5 5 514 515
87 1 2 5 5 515 516
88 1 2 5 5 516 517
89 1 2 5 5 517 518
90 1 2 5 5 518 519
91 1 2 5 5 519 520
92 1 2 5 5 520 521
93 1 2 5 5 521 522
94 1 2 5 5 522 523
95 1 2 5 5 523 524
96 1 2 5 5 524 525
97 1 2 5 5 525 526
98 1 2 5 5 526 527
99 1 2 5 5 527 528
100 1 2 5 5 528 529
101 1 2 5 5 529 530
102 1 2 5 5 530 531
103 1 2 5 5 531 532
104 1 2 5 5 532 533
105 3 2 6 6 1 2 43 42
106 3 2 6 6 2 3 44 43
107 3 2 6 6 3 4 45 44
108 3 2 6 6 4 5 46 45
109 3 2 6 6 5 6 47 46
110 3 2 6 6 6 7 48 47
111 3 2 6 6 7 8 49 48
112 3 2 6 6 8 9 50 49
113 3 2 6 6 9 10 51 50
114 3 2 6 6 10 11 52 51
115 3 2 6 6 11 12 53 52
116 3 2 6 6 12 13 54 53
117 3 2 6 6 13 14 55 54
118 3 2 6 6 14 15 56 55
119 3 2 6 6 15 16 57 56
120 3 2 6 6 16 17 58 57
121 3 2 6 6 17 18 59 58
122 3 2 6 6 18 19 60 59
123 3 2 6 6 19 20 61 60
124 3 2 6 6 20 21 62 61
125 3 2 6 6 21 22 63 62
126 3 2 6 6 22 23 64 63
127 3 2 6 6 23 24 65 64
128 3 2 6 6 24 25 66 65
129 3 2 6 6 25 26 67 66
130 3 2 6 6 26 27 68 67
131 3 2 6 6 27 28 69 68
132 3 2 6 6 28 29 70 69
133 3 2 6 6 29 30 71 70
134 3 2 6 6 30 31 72 71
135 3 2 6 6 31 32 73 72
136 3 2 6 6 32 33 74 73
137 3 2 6 6 33 34 75 74
138 3 2 6 6 34 35 76 75
139 3 2 6 6 35 36 77 76
140 3 2 6 6 36 37 78 77
141 3 2 6 6 37 38 79 78
142 3 2 6 6 38 39 80 79
143 3 2 6 6 39 40 81 80
144 3 2 6 6 40 41 82 81
145 3 2 6 6 42 43 84 83
146 3 2 6 6 43 44 85 84
147 3 2 6 6 44 45 86 85
148 3 2 6 6 45 46 87 86
149 3 2 6 6 46 47 88 87
150 3 2 6 6 47 48 89 88
151 3 2 6 6 48 49 90 89
152 3 2 6 6 49 50 91 90
153 3 2 6 6 50 51 92 91
154 3 2 6 6 51 52 93 92
155 3 2 6 6 52 53 94 93
156 3 2 6 6 53 54 95 94
157 3 2 6 6 54 55 96 95
158 3 2 6 6 55 56 97 96
159 3 2 6 6 56 57 98 97
160 3 2 6 6 57 58 99 98
161 3 2 6 6 58 59 100 99
162 3 2 6 6 59 60 101 100
163 3 2 6 6 60 61 102 101
164 3 2 6 6 61 62 103 102
165 3 2 6 6 62 63 104 103
166 3 2 6 6 63 64 105 104
167 3 2 6 6 64 65 106 105
168 3 2 6 6 65 66 107 106
169 3 2 6 6 66 67 108 107
170 3 2 6 6 67 68 109 108
171 3 2 6 6 68 69 110 109
172 3 2 6 6 69 70 111 110
173 3 2 6 6 70 71 112 111
174 3 2 6 6 71 72 113 112
175 3 2 6 6 72 73 114 113
176 3 2 6 6 73 74 115 114
177 3 2 6 6 74 75 116 115
178 3 2 6 6 75 76 117 116
179 3 2 6 6 76 77 118 117
180 3 2 6 6 77 78 119 118
181 3 2 6 6 78 79 120 119
182 3 2 6 6 79 80 121 120
183 3 2 6 6 80 81 122 121
184 3 2 6 6 81 82 123 122
185 3 2 6 6 83 84 125 124
186 3 2 6 6 84 85 126 125
187 3 2 6 6 85 86 127 126
188 3 2 6 6 86 87 128 127
189 3 2 6 6 87 88 129 128
190 3 2 6 6 88 89 130 129
191 3 2 6 6 89 90 131 130
192 3 2 6 6 90 91 132 131
193 3 2 6 6 91 92 133 132
194 3 2 6 6 92 93 134 133
195 3 2 6 6 93 94 135 134
196 3 2 6 6 94 95 136 135
197 3 2 6 6 95 96 137 136
198 3 2 6 6 96 97 138 137
199 3 2 6 6 97 98 139 138
200 3 2 6 6 98 99 140 139
201 3 2 6 6 99 100 141 140
202 3 2 6 6 100 101 142 141
203 3 2 6 6 101 102 143 142
204 3 2 6 6 102 103 144 143
205 3 2 6 6 103 104 145 144
206 3 2 6 6 104 105 146 145
207 3 2 6 6 105 106 147 146
208 3 2 6 6 106 107 148 147
209 3 2 6 6 107 108 149 148
210 3 2 6 6 108 109 150 149
211 3 2 6 6 109 110 151 150
212 3 2 6 6 110 111 152 151
213 3 2 6 6 111 112 153 152
214 3 2 6 6 112 113 154 153
215 3 2 6 6 113 114 155 154
216 3 2 6 6 114 115 156 155
217 3 2 6 6 115 116 157 156
218 3 2 6 6 116 117 158 157
219 3 2 6 6 117 118 159 158
220 3 2 6 6 118 119 160 159
221 3 2 6 6 119 120 161 160
222 3 2 6 6 120 121 162 161
223 3 2 6 6 121 122 163 162
224 3 2 6 6 122 123 164 163
225 3 2 6 6 124 125 166 165
226 3 2 6 6 125 126 167 166
227 3 2 6 6 126 127 168 167
228 3 2 6 6 127 128 169 168
229 3 2 6 6 128 129 170 169
230 3 2 6 6 129 130 171 170
231 3 2 6 6 130 131 172 171
232 3 2 6 6 131 132 173 172
233 3 2 6 6 132 133 174 173
234 3 2 6 6 133 134 175 174
235 3 2 6 6 134 135 176 175
236 3 2 6 6 135 136 177 176
237 3 2 6 6 136 137 178 177
238 3 2 6 6 137 138 179 178
239 3 2 6 6 138 139 180 179
240 3 2 6 6 139 140 181 180
241 3 2 6 6 140 141 182 181
242 3 2 6 6 141 142 183 182
243 3 2 6 6 142 143 184 183
244 3 2 6 6 143 144 185 184
245 3 2 6 6 144 145 186 185
246 3 2 6 6 145 146 187 186
247 3 2 6 6 146 147 188 187
248 3 2 6 6 147 148 189 188
249 3 2 6 6 148 149 190 189
250 3 2 6 6 149 150 191 190
251 3 2 6 6 150 151 192 191
252 3 2 6 6 151 152 193 192
253 3 2 6 6 152 153 194 193
254 3 2 6 6 153 154 195 194
255 3 2 6 6 154 155 196 195
256 3 2 6 6 155 156 197 196
257 3 2 6 6 156 157 198 197
258 3 2 6 6 157 158 199 198
259 3 2 6 6 158 159 200 199
260 3 2 6 6 159 160 201 200
261 3 2 6 6 160 161 202 201
262 3 2 6 6 161 162 203 202
263 3 2 6 6 162 163 204 203
264 3 2 6 6 163 164 205 204
265 3 2 6 6 165 166 207 206
266 3 2 6 6 166 167 208 207
267 3 2 6 6 167 168 209 208
268 3 2 6 6 168 169 210 209
269 3 2 6 6 169 170 211 210
270 3 2 6 6 170 171 212 211
271 3 2 6 6 171 172 213 212
272 3 2 6 6 172 173 214 213
273 3 2 6 6 173 174 215 214
274 3 2 6 6 174 175 216 215
275 3 2 6 6 175 176 217 216
276 3 2 6 6 176 177 218 217
277 3 2 6 6 177 178 219 218
278 3 2 6 6 178 179 220 219
279 3 2 6 6 179 180 221 220
280 3 2 6 6 180 181 222 221
281 3 2 6 6 181 182 223 222
282 3 2 6 6 182 183 224 223
283 3 2 6 6 183 184 225 224
284 3 2 6 6 184 185 226 225
285 3 2 6 6 185 186 227 226
286 3 2 6 6 186 187 228 227
287 3 2 6 6 187 188 229 228
288 3 2 6 6 188 189 230 229
289 3 2 6 6 189 190 231 230
290 3 2 6 6 190 191 232 231
291 3 2 6 6 191 192 233 232
292 3 2 6 6 192 193 234 233
293 3 2 6 6 193 194 235 234
294 3 2 6 6 194 195 236 235
295 3 2 6 6 195 196 237 236
296 3 2 6 6 196 197 238 237
297 3 2 6 6 197 198 239 238
298 3 2 6 6 198 199 240 239
299 3 2 6 6 199 200 241 240
300 3 2 6 6 200 201 242 241
301 3 2 6 6 201 202 243 242
302 3 2 6 6 202 203 244 243
303 3 2 6 6 203 204 245 244
304 3 2 6 6 204 205 246 245
305 3 2 6 6 206 207 248 247
306 3 2 6 6 207 208 249 248
307 3 2 6 6 208 209 250 249
308 3 2 6 6 209 210 251 250
309 3 2 6 6 210 211 252 251
310 3 2 6 6 211 212 253 252
311 3 2 6 6 212 213 254 253
312 3 2 6 6 213 214 255 254
313 3 2 6 6 214 215 256 255
314 3 2 6 6 215 216 257 256
315 3 2 6 6 216 217 258 257
316 3 2 6 6 217 218 259 258
317 3 2 6 6 218 219 260 259
318 3 2 6 6 219 220 261 260
319 3 2 6 6 220 221 262 261
320 3 2 6 6 221 222 263 262
321 3 2 6 6 222 223 264 263
322 3 2 6 6 223 224 265 264
323 3 2 6 6 224 225 266 265
324 3 2 6 6 225 226 267 266
325 3 2 6 6 226 227 268 267
326 3 2 6 6 227 228 269 268
327 3 2 6 6 228 229 270 269
328 3 2 6 6 229 230 271 270
329 3 2 6 6 230 231 272 271
330 3 2 6 6 231 232 273 272
331 3 2 6 6 232 233 274 273
332 3 2 6 6 233 234 275 274
333 3 2 6 6 234 235 276 275
334 3 2 6 6 235 236 277 276
335 3 2 6 6 236 237 278 277
336 3 2 6 6 237 238 279 278
337 3 2 6 6 238 239 280 279
338 3 2 6 6 239 240 281 280
339 3 2 6 6 240 241 282 281
340 3 2 6 6 241 242 283 282
341 3 2 6 6 242 243 284 283
342 3 2 6 6 243 244 285 284
343 3 2 6 6 244 245 286 285
344 3 2 6 6 245 246 287 286
345 3 2 6 6 247 248 289 288
346 3 2 6 6 248 249 290 289
347 3 2 6 6 249 250 291 290
348 3 2 6 6 250 251 292 291
349 3 2 6 6 251 252 293 292
350 3 2 6 6 252 253 294 293
351 3 2 6 6 253 254 295 294
352 3 2 6 6 254 255 296 295
353 3 2 6 6 255 256 297 296
354 3 2 6 6 256 257 298 297
355 3 2 6 6 257 258 299 298
356 3 2 6 6 258 259 300 299
357 3 2 6 6 259 260 301 300
358 3 2 6 6 260 261 302 301
359 3 2 6 6 261 262 303 302
360 3 2 6 6 262 263 304 303
361 3 2 6 6 263 264 305 304
362 3 2 6 6 264 265 306 305
363 3 2 6 6 265 266 307 306
364 3 2 6 6 266 267 308 307
365 3 2 6 6 267 268 309 308
366 3 2 6 6 268 269 310 309
367 3 2 6 6 269 270 311 310
368 3 2 6 6 270 271 312 311
369 3 2 6 6 271 272 313 312
370 3 2 6 6 272 273 314 313
371 3 2 6 6 273 274 315 314
372 3 2 6 6 274 275 316 315
373 3 2 6 6 275 276 317 316
374 3 2 6 6 276 277 318 317
375 3 2 6 6 277 278 319 318
376 3 2 6 6 278 279 320 319
377 3 2 6 6 279 280 321 320
378 3 2 6 6 280 281 322 321
379 3 2 6 6 281 282 323 322
380 3 2 6 6 282 283 324 323
381 3 2 6 6 283 284 325 324
382 3 2 6 6 284 285 326 325
383 3 2 6 6 285 286 327 326
384 3 2 6 6 286 287 328 327
385 3 2 6 6 288 289 330 329
386 3 2 6 6 289 290 331 330
387 3 2 6 6 290 291 332 331
388 3 2 6 6 291 292 333 332
389 3 2 6 6 292 293 334 333
390 3 2 6 6 293 294 335 334
391 3 2 6 6 294 295 336 335
392 3 2 6 6 295 296 337 336
393 3 2 6 6 296 297 338 337
394 3 2 6 6 297 298 339 338
395 3 2 6 6 298 299 340 339
396 3 2 6 6 299 300 341 340
397 3 2 6 6 300 301 342 341
398 3 2 6 6 301 302 343 342
399 3 2 6 6 302 303 344 343
400 3 2 6 6 303 304 345 344
401 3 2 6 6 304 305 346 345
402 3 2 6 6 305 306 347 346
403 3 2 6 6 306 307 348 347
404 3 2 6 6 307 308 349 348
405 3 2 6 6 308 309 350 349
406 3 2 6 6 309 310 351 350
407 3 2 6 6 310 311 352 351
408 3 2 6 6 311 312 353 352
409 3 2 6 6 312 313 354 353
410 3 2 6 6 313 314 355 354
411 3 2 6 6 314 315 356 355
412 3 2 6 6 315 316 357 356
413 3 2 6 6 316 317 358 357
414 3 2 6 6 317 318 359 358
415 3 2 6 6 318 319 360 359
416 3 2 6 6 319 320 361 360
417 3 2 6 6 320 321 362 361
418 3 2 6 6 321 322 363 362
419 3 2 6 6 322 323 364 363
420 3 2 6 6 323 324 365 364
421 3 2 6 6 324 325 366 365
422 3 2 6 6 325 326 367 366
423 3 2 6 6 326 327 368 367
424 3 2 6 6 327 328 369 368
425 3 2 6 6 329 330 371 370
426 3 2 6 6 330 331 372 371
427 3 2 6 6 331 332 373 372
428 3 2 6 6 332 333 374 373
429 3 2 6 6 333 334 375 374
430 3 2 6 6 334 335 376 375
431 3 2 6 6 335 336 377 376
432 3 2 6 6 336 337 378 377
433 3 2 6 6 337 338 379 378
434 3 2 6 6 338 339 380 379
435 3 2 6 6 339 340 381 380
436 3 2 6 6 340 341 382 381
437 3 2 6 6 341 342 383 382
438 3 2 6 6 342 343 384 383
439 3 2 6 6 343 344 385 384
440 3 2 6 6 344 345 386 385
441 3 2 6 6 345 346 387 386
442 3 2 6 6 346 347 388 387
443 3 2 6 6 347 348 389 388
444 3 2 6 6 348 349 390 389
445 3 2 6 6 349 350 391 390
446 3 2 6 6 350 351 392 391
447 3 2 6 6 351 352 393 392
448 3 2 6 6 352 353 394 393
449 3 2 6 6 353 354 395 394
450 3 2 6 6 354 355 396 395
451 3 2 6 6 355 356 397 396
452 3 2 6 6 356 357 398 397
453 3 2 6 6 357 358 399 398
454 3 2 6 6 358 359 400 399
455 3 2 6 6 359 360 401 400
456 3 2 6 6 360 361 402 401
457 3 2 6 6 361 362 403 402
458 3 2 6 6 362 363 404 403
459 3 2 6 6 363 364 405 404
460 3 2 6 6 364 365 406 405
461 3 2 6 6 365 366 407 406
462 3 2 6 6 366 367 408 407
463 3 2 6 6 367 368 409 408
464 3 2 6 6 368 369 410 409
465 3 2 6 6 370 371 412 411
466 3 2 6 6 371 372 413 412
467 3 2 6 6 372 373 414 413
468 3 2 6 6 373 374 415 414
469 3 2 6 6 374 375 416 415
470 3 2 6 6 375 376 417 416
471 3 2 6 6 376 377 418 417
472 3 2 6 6 377 378 419 418
473 3 2 6 6 378 379 420 419
474 3 2 6 6 379 380 421 420
475 3 2 6 6 380 381 422 421
476 3 2 6 6 381 382 423 422
477 3 2 6 6 382 383 424 423
478 3 2 6 6 383 384 425 424
479 3 2 6 6 384 385 426 425
480 3 2 6 6 385 386 427 426
481 3 2 6 6 386 387 428 427
482 3 2 6 6 387 388 429 428
483 3 2 6 6 388 389 430 429
484 3 2 6 6 389 390 431 430
485 3 2 6 6 390 391 432 431
486 3 2 6 6 391 392 433 432
487 3 2 6 6 392 393 434 433
488 3 2 6 6 393 394 435 434
489 3 2 6 6 394 395 436 435
490 3 2 6 6 395 396 437 436
491 3 2 6 6 396 397 438 437
492 3 2 6 6 397 398 439 438
493 3 2 6 6 398 399 440 439
494 3 2 6 6 399 400 441 440
495 3 2 6 6 400 401 442 441
496 3 2 6 6 401 402 443 442
497 3 2 6 6 402 403 444 443
498 3 2 6 6 403 404 445 444
499 3 2 6 6 404 405 446 445
500 3 2 6 6 405 406 447 446
501 3 2 6 6 406 407 448 447
502 3 2 6 6 407 408 449 448
503 3 2 6 6 408 409 450 449
504 3 2 6 6 409 410 451 450
505 3 2 6 6 411 412 453 452
506 3 2 6 6 412 413 454 453
507 3 2 6 6 413 414 455 454
508 3 2 6 6 414 415 456 455
509 3 2 6 6 415 416 457 456
510 3 2 6 6 416 417 458 457
511 3 2 6 6 417 418 459 458
512 3 2 6 6 418 419 460 459
513 3 2 6 6 419 420 461 460
514 3 2 6 6 420 421 462 461
515 3 2 6 6 421 422 463 462
516 3 2 6 6 422 423 464 463
517 3 2 6 6 423 424 465 464
518 3 2 6 6 424 425 466 465
519 3 2 6 6 425 426 467 466
520 3 2 6 6 426 427 468 467
521 3 2 6 6 427 428 469 468
522 3 2 6 6 428 429 470 469
523 3 2 6 6 429 430 471 470
524 3 2 6 6 430 431 472 471
525 3 2 6 6 431 432 473 472
526 3 2 6 6 432 433 474 473
527 3 2 6 6 433 434 475 474
528 3 2 6 6 434 435 476 475
529 3 2 6 6 435 436 477 476
530 3 2 6 6 436 437 478 477
531 3 2 6 6 437 438 479 478
532 3 2 6 6 438 439 480 479
533 3 2 6 6 439 440 481 480
534 3 2 6 6 440 441 482 481
535 3 2 6 6 441 442 483 482
536 3 2 6 6 442 443 484 483
537 3 2 6 6 443 444 485 484
538 3 2 6 6 444 445 486 485
539 3 2 6 6 445 446 487 486
540 3 2 6 6 446 447 488 487
541 3 2 6 6 447 448 489 488
542 3 2 6 6 448 449 490 489
543 3 2 6 6 449 450 491 490
544 3 2 6 6 450 451 492 491
545 3 2 6 6 452 453 494 493
546 3 2 6 6 453 454 495 494
547 3 2 6 6 454 455 496 495
548 3 2 6 6 455 456 497 496
549 3 2 6 6 456 457 498 497
550 3 2 6 6 457 458 499 498
551 3 2 6 6 458 459 500 499
552 3 2 6 6 459 460 501 500
553 3 2 6 6 460 461 502 501
554 3 2 6 6 461 462 503 502
555 3 2 6 6 462 463 504 503
556 3 2 6 6 463 464 505 504
557 3 2 6 6 464 465 506 505
558 3 2 6 6 465 466 507 506
559 3 2 6 6 466 467 508 507
560 3 2 6 6 467 468 509 508
561 3 2 6 6 468 469 510 509
562 3 2 6 6 469 470 511 510
563 3 2 6 6 470 471 512 511
564 3 2 6 6 471 472 513 512
565 3 2 6 6 472 473 514 513
566 3 2 6 6 473 474 515 514
567 3 2 6 6 474 475 516 515
568 3 2 6 6 475 476 517 516
569 3 2 6 6 476 477 518 517
570 3 2 6 6 477 478 519 518
571 3 2 6 6 478 479 520 519
572 3 2 6 6 479 480 521 520
573 3 2 6 6 480 481 522 521
574 3 2 6 6 481 482 523 522
575 3 2 6 6 482 483 524 523
576 3 2 6 6 483 484 525 524
577 3 2 6 6 484 485 526 525
578 3 2 6 6 485 486 527 526
579 3 2 6 6 486 487 528 527
580 3 2 6 6 487 488 529 528
581 3 2 6 6 488 489 530 529
582 3 2 6 6 489 490 531 530
583 3 2 6 6 490 491 532 531
584 3 2 6 6 491 492 533 532
$EndElements
